<svg width="305" height="336" viewBox="0 0 305 336" fill="none" xmlns="http://www.w3.org/2000/svg">
<g clip-path="url(#clip0_72_1990)">
<path d="M0.534296 110.862C0.534295 91.9537 10.6215 74.4823 26.9962 65.0283L125.963 7.88985C142.338 -1.56409 162.512 -1.56503 178.887 7.88881L277.854 65.0275C294.229 74.4815 304.316 91.954 304.316 110.862L304.316 225.139C304.316 244.047 294.229 261.519 277.854 270.972L178.887 328.111C162.513 337.565 142.338 337.565 125.963 328.111L26.996 270.972C10.6214 261.518 0.534471 244.047 0.534444 225.139L0.534296 110.862Z" fill="white"/>
<path d="M0.534296 110.862C0.534295 91.9537 10.6215 74.4823 26.9962 65.0283L125.963 7.88985C142.338 -1.56409 162.512 -1.56503 178.887 7.88881L277.854 65.0275C294.229 74.4815 304.316 91.954 304.316 110.862L304.316 225.139C304.316 244.047 294.229 261.519 277.854 270.972L178.887 328.111C162.513 337.565 142.338 337.565 125.963 328.111L26.996 270.972C10.6214 261.518 0.534471 244.047 0.534444 225.139L0.534296 110.862Z" fill="url(#paint0_linear_72_1990)"/>
<g filter="url(#filter0_d_72_1990)">
<path d="M136.238 43.5915C145.844 38.0503 156.404 38.7749 166.056 44.0417C183.927 53.8108 201.609 63.9333 219.207 74.1794C229.807 80.349 238.459 84.2312 248.225 90.282L249.611 89.4646L263.478 80.3415C264.808 79.4671 266.577 80.4209 266.577 82.0124V115.518C266.577 116.652 265.636 117.559 264.504 117.517L212.51 115.606C210.528 115.533 209.85 112.93 211.544 111.899L224.045 104.288C204.867 93.4492 183.922 81.8975 166.167 71.4675C155.842 65.4035 146.243 65.9266 136.068 71.9841C114.994 84.5239 93.6331 96.5735 72.4286 108.885C65.3974 112.969 60.7442 118.725 60.62 127.279C60.4893 136.695 60.4966 146.112 60.3397 155.521C60.2809 158.978 61.9338 161.148 64.7763 162.788C77.1854 169.95 89.5553 177.184 101.958 184.352C114.772 191.756 127.901 198.669 140.336 206.661C148.046 211.62 154.816 212.319 162.311 207.079C165.703 204.707 169.323 202.668 172.903 200.571C174.151 199.839 175.569 199.407 176.909 198.839C176.517 198.12 176.125 197.395 175.726 196.677L175.72 196.67C169.224 192.756 162.788 188.743 156.234 184.946C135.01 172.661 113.733 160.468 92.496 148.222C87.9937 145.628 87.1571 136.643 91.1366 131.788C92.6199 129.978 94.5286 128.351 96.5477 127.175C112.662 117.804 128.802 108.485 145.027 99.3044C151.562 95.6061 157.358 98.7554 162.965 101.99C196.088 121.051 229.186 140.158 262.329 159.2C265.374 160.951 267.059 163.115 266.994 166.806C266.674 184.038 266.622 201.276 266.23 218.508C265.995 228.767 261.65 237.158 252.808 242.51C234.845 253.383 216.718 263.988 198.571 274.554C188.26 280.56 177.857 286.421 167.343 292.067C156.685 297.791 145.7 297.583 135.265 291.78C115.105 280.573 95.1485 268.994 75.1854 257.447C66.7878 252.591 33.2538 234.538 33.2538 234.538L33.6024 208.394C33.6232 206.847 35.3137 205.905 36.6376 206.706C40.74 209.186 47.9707 213.545 51.1718 215.391C72.252 227.559 93.2996 239.798 114.36 252.01C120.699 255.689 127.292 258.996 133.33 263.106C145.491 271.385 156.848 271.529 169.538 263.322C185.156 253.22 201.792 244.698 217.939 235.406C222.886 232.557 227.644 229.395 232.518 226.415C240.34 221.631 242.575 214.025 242.816 205.576C243.052 197.44 243.228 189.279 242.765 181.163C242.627 178.784 240.797 175.576 238.771 174.381C212.875 159.051 186.75 144.112 160.814 128.847C154.319 125.025 148.405 124.632 142.099 128.965C138.44 131.48 134.467 133.526 130.651 135.806C126.914 138.035 126.972 140.087 130.899 142.347C144.411 150.112 157.936 157.858 171.461 165.603L171.485 165.617C184.339 172.981 197.205 180.32 210.039 187.711C216.443 191.396 216.718 202.192 209.941 206.668C199.859 213.326 189.299 219.272 178.89 225.434C174.093 228.27 168.865 230.472 164.395 233.733C156.018 239.849 148.124 239.863 139.264 234.537C117.562 221.494 95.6128 208.87 73.7157 196.147C62.705 189.75 51.6481 183.431 40.5067 177.256C37.3246 175.498 35.9917 173.282 36.0243 169.636C36.1746 152.875 36.1291 136.113 36.1356 119.352C36.1358 106.231 44.31 98.2979 54.3339 92.2078C81.4718 75.7211 108.741 59.4509 136.238 43.5915Z" fill="white"/>
</g>
</g>
<defs>
<filter id="filter0_d_72_1990" x="33.2538" y="39.7517" width="233.742" height="257.848" filterUnits="userSpaceOnUse" color-interpolation-filters="sRGB">
<feFlood flood-opacity="0" result="BackgroundImageFix"/>
<feColorMatrix in="SourceAlpha" type="matrix" values="0 0 0 0 0 0 0 0 0 0 0 0 0 0 0 0 0 0 127 0" result="hardAlpha"/>
<feOffset dy="1.35105"/>
<feComposite in2="hardAlpha" operator="out"/>
<feColorMatrix type="matrix" values="0 0 0 0 0 0 0 0 0 0 0 0 0 0 0 0 0 0 0.1 0"/>
<feBlend mode="normal" in2="BackgroundImageFix" result="effect1_dropShadow_72_1990"/>
<feBlend mode="normal" in="SourceGraphic" in2="effect1_dropShadow_72_1990" result="shape"/>
</filter>
<linearGradient id="paint0_linear_72_1990" x1="253.155" y1="194.173" x2="116.804" y2="357.19" gradientUnits="userSpaceOnUse">
<stop stop-color="#F88F23"/>
<stop offset="0.479228" stop-color="#F1510A"/>
<stop offset="1" stop-color="#AA2209"/>
</linearGradient>
<clipPath id="clip0_72_1990">
<rect width="305" height="336" fill="white"/>
</clipPath>
</defs>
</svg>
